<svg xmlns="http://www.w3.org/2000/svg" width="2836" height="958" viewBox="0 0 2836 958" version="1.1"><path d="M 2494.121 1.080 C 2477.666 3.957, 2464.211 16.466, 2458.053 34.613 L 2455.640 41.726 2447.070 42.346 C 2427.714 43.745, 2412.209 50.697, 2398.904 63.942 C 2392.311 70.506, 2389.459 74.248, 2386.666 80 C 2382.742 88.081, 2379.479 100, 2381.189 100 C 2381.746 100, 2386.809 98.658, 2392.440 97.017 C 2445.320 81.613, 2495.906 81.983, 2544.839 98.130 C 2548.365 99.294, 2551.550 99.840, 2552.018 99.361 C 2553.375 97.969, 2551.233 88.978, 2548.002 82.500 C 2546.356 79.200, 2540.948 71.100, 2535.984 64.500 C 2519.477 42.551, 2516.663 33.351, 2523.051 22.213 C 2524.846 19.083, 2528.319 15.206, 2531.562 12.713 L 2537.040 8.500 2533.003 6.705 C 2522.342 1.964, 2504.134 -0.670, 2494.121 1.080 M 2444 149.115 C 2435.802 150.051, 2418.309 153.288, 2410.672 155.282 L 2405.844 156.543 2432.492 187.294 C 2458.297 217.072, 2459.368 218.160, 2466.320 221.657 C 2498.046 237.615, 2524.088 268.048, 2538.237 305.704 C 2540.319 311.246, 2546.059 318.245, 2591.949 371.204 C 2620.208 403.817, 2643.579 430.500, 2643.884 430.500 C 2645.792 430.500, 2653.986 400.157, 2656.440 384 C 2671.575 284.354, 2616.419 187.803, 2527.356 158.036 C 2500.883 149.189, 2471.195 146.012, 2444 149.115 M 2736 290.966 C 2736 291.331, 2737.977 297.699, 2740.393 305.117 C 2750.073 334.836, 2754.299 360.383, 2754.352 389.500 C 2754.406 419.757, 2750.404 442.469, 2739.815 472 C 2736.301 481.800, 2726.955 501.827, 2721.756 510.699 L 2718.190 516.784 2754.765 558.992 C 2790.229 599.919, 2791.388 601.137, 2792.920 599.102 C 2796.637 594.163, 2808.498 572.384, 2813.188 561.885 C 2839.623 502.709, 2842.962 438.027, 2822.653 378.500 C 2807.539 334.200, 2781.826 303.107, 2752.500 293.667 C 2746.557 291.754, 2736 290.026, 2736 290.966" stroke="none" fill="#6ec6af" fill-rule="evenodd"/><path d="M 2285.588 139.563 C 2268.376 145.576, 2245.682 158.231, 2228.849 171.203 C 2189.931 201.196, 2153.675 258.217, 2136.464 316.500 C 2127.204 347.854, 2123.533 376.881, 2124.322 412.500 C 2125.226 453.330, 2131.611 485.886, 2145.701 521.500 C 2173.488 591.737, 2221.174 640.807, 2275.560 655.130 C 2283.407 657.196, 2286.701 657.478, 2302.500 657.437 C 2318.799 657.395, 2321.445 657.137, 2330.500 654.705 C 2362.616 646.077, 2394.150 620.881, 2418.599 584.314 C 2446.724 542.248, 2463.987 492.964, 2462.816 458.077 L 2462.500 448.653 2453.379 459.593 C 2424.910 493.742, 2392.509 515.727, 2361.121 522.195 C 2349.195 524.652, 2327.405 524.303, 2317 521.488 C 2307.381 518.886, 2294.292 513.003, 2285.905 507.511 C 2276.671 501.465, 2258.166 482.973, 2251.309 472.939 C 2236.215 450.852, 2225.708 423.713, 2220.363 393 C 2217.221 374.948, 2216.138 345.609, 2217.905 326.399 C 2223.729 263.081, 2247.947 202.192, 2290.950 142.750 C 2293.238 139.588, 2294.523 137.033, 2293.805 137.074 C 2293.087 137.115, 2289.390 138.235, 2285.588 139.563 M 2394.500 160.031 C 2381.607 164.368, 2360.945 174.767, 2350.680 182.086 C 2334.480 193.636, 2321.120 208.593, 2313.669 223.520 C 2307.518 235.842, 2307.165 235.620, 2322.080 228.814 C 2369.321 207.258, 2412.719 202.562, 2450 214.974 C 2454.675 216.531, 2458.557 217.736, 2458.626 217.652 C 2459.143 217.028, 2406.336 157.445, 2405.094 157.252 C 2404.217 157.115, 2399.450 158.366, 2394.500 160.031 M 1723.411 224.484 C 1697.874 230.040, 1680.970 254.272, 1685.006 279.536 C 1688.852 303.616, 1709.519 320.326, 1735.500 320.365 C 1761.747 320.404, 1782.287 303.695, 1786.041 279.250 C 1791.370 244.546, 1759.459 216.641, 1723.411 224.484 M 231.136 245.040 C 181.022 248.389, 133.965 265.324, 95.650 293.798 C 83.848 302.569, 63.612 322.002, 54.308 333.500 C 31.473 361.720, 13.948 398.592, 6.467 434.159 C 1.554 457.511, -0.335 491.429, 1.928 515.634 C 7.851 578.995, 36.663 636.360, 82.236 675.525 C 111.303 700.506, 145.169 718.039, 182.500 727.433 C 217.898 736.340, 259.279 738.006, 294.755 731.953 C 362.967 720.313, 419.845 684.121, 456.554 629 C 478.369 596.244, 491.313 559.854, 496.040 518 C 497.650 503.744, 497.383 471.589, 495.529 456.500 C 484.406 365.975, 429.168 294.339, 345.247 261.602 C 312.214 248.716, 269.307 242.488, 231.136 245.040 M 2372.477 288.392 C 2350.937 292.505, 2324.420 310.743, 2315.851 327.338 L 2313.869 331.176 2316.185 330.338 C 2317.458 329.877, 2322.550 329.503, 2327.500 329.506 C 2335.591 329.512, 2337.040 329.811, 2341.848 332.469 C 2355.586 340.062, 2364.970 358.541, 2364.970 378 C 2364.970 392.727, 2360.362 405.254, 2351.373 414.964 C 2348.381 418.196, 2346.384 421.119, 2346.935 421.460 C 2349.034 422.757, 2367.835 423.177, 2375.439 422.096 C 2385.279 420.697, 2398.228 416.308, 2405.624 411.865 C 2424.526 400.509, 2438.841 381.670, 2444.053 361.293 C 2446.481 351.799, 2446.682 335.037, 2444.469 326.542 C 2439.856 308.832, 2427.030 295.802, 2408.500 290 C 2399.654 287.230, 2382.557 286.467, 2372.477 288.392 M 2541 313.121 C 2541 313.432, 2541.835 316.120, 2542.856 319.093 C 2545.777 327.599, 2549.752 345.395, 2551.659 358.500 C 2553.774 373.038, 2554.060 409.613, 2552.171 424 C 2544.906 479.323, 2523.021 527.327, 2489.141 562.250 C 2486.048 565.438, 2484.217 567.999, 2485.031 567.999 C 2487.804 567.996, 2506.505 563.139, 2516 559.956 C 2567.416 542.716, 2606.468 508.034, 2632.860 456.174 C 2641.734 438.736, 2644.269 432.049, 2642.743 430.103 C 2640.973 427.845, 2545.093 316.908, 2542.855 314.528 C 2541.835 313.443, 2541 312.810, 2541 313.121 M 230 327.613 C 207.157 331.832, 197.438 334.757, 182.302 341.969 C 138.310 362.929, 107.528 403.362, 98.009 452.692 C 93.652 475.270, 93.665 504.657, 98.043 526.277 C 110.715 588.856, 155.755 635.784, 215.870 649.043 C 257.892 658.311, 300.651 650.139, 337.047 625.884 C 349.066 617.875, 366.437 600.574, 374.783 588.302 C 408.953 538.058, 413.498 465.796, 385.941 410.883 C 367.947 375.024, 336.596 347.363, 299.890 334.956 C 283.430 329.392, 273.526 327.830, 252.500 327.482 C 241.500 327.300, 231.375 327.359, 230 327.613 M 2049.500 366.590 C 2017.338 372.262, 1983.333 393.030, 1968.230 416.224 C 1961.621 426.376, 1958.955 434.252, 1958.281 445.619 C 1956.915 468.685, 1966.656 487.719, 1998.393 524 C 2013.275 541.012, 2017.823 547.314, 2019.047 552.619 C 2020.228 557.740, 2018.803 569.454, 2013.893 595 C 2005.823 636.981, 2003.376 657.751, 2004.351 676 C 2005.422 696.035, 2010.057 709.038, 2019.162 717.554 C 2029.475 727.201, 2041.253 730.103, 2062.343 728.193 C 2096.915 725.062, 2121.276 714.011, 2142.618 691.776 C 2149.445 684.664, 2157 675.161, 2157 673.686 C 2157 673.437, 2153.287 670.531, 2148.750 667.227 C 2105.763 635.934, 2073.471 580.675, 2060.669 516.500 C 2056.266 494.429, 2054.822 479.945, 2054.272 452.322 C 2053.719 424.540, 2054.687 406.662, 2058.052 382.527 C 2059.123 374.842, 2060 367.755, 2060 366.777 C 2060 364.726, 2060.065 364.727, 2049.500 366.590 M 733.009 370.090 C 717.895 371.544, 699.756 376.585, 687.500 382.736 C 671.899 390.567, 652.272 407.037, 642.210 420.741 C 639.682 424.183, 637.337 427, 636.998 427 C 636.659 427, 634.684 418.113, 632.609 407.250 C 630.534 396.387, 628.386 385.363, 627.835 382.750 L 626.834 378 591.417 378 L 556 378 556 551.500 L 556 725 601.471 725 L 646.941 725 647.258 614.750 C 647.611 491.627, 647.077 500.838, 654.791 485 C 659.578 475.173, 670.578 463.975, 680.500 458.828 C 691.670 453.034, 699.953 450.868, 713.250 450.261 C 751.021 448.539, 772.681 463.589, 780.598 497.057 C 782.210 503.873, 782.390 513.781, 782.732 614.750 L 783.105 725 828.606 725 L 874.107 725 873.701 600.250 C 873.265 466.107, 873.459 471.227, 868.054 451.424 C 865.361 441.558, 857.427 424.753, 851.633 416.638 C 832.073 389.248, 800.973 373.380, 760.235 370.004 C 747.138 368.919, 745.110 368.925, 733.009 370.090 M 1073.908 370.124 C 1054.761 371.820, 1031.763 379.315, 1013.652 389.761 C 978.576 409.993, 951.958 443.283, 937.546 484.942 C 924.629 522.280, 923.622 570.150, 934.914 610.099 C 952.299 671.611, 1000.326 718.366, 1059.312 731.205 C 1073.978 734.397, 1103.826 734.386, 1118.688 731.183 C 1153.718 723.634, 1185.523 703.420, 1204.337 676.750 C 1206.568 673.587, 1208.643 671.001, 1208.947 671.003 C 1209.251 671.005, 1211.022 680.567, 1212.881 692.253 C 1214.741 703.939, 1216.702 716.087, 1217.238 719.250 L 1218.214 725 1256.607 725 L 1295 725 1295 551.500 L 1295 378 1256.603 378 L 1218.205 378 1217.136 384.250 C 1216.548 387.688, 1214.680 399.275, 1212.984 410 C 1211.288 420.725, 1209.690 430.120, 1209.433 430.877 C 1209.149 431.711, 1206.627 429.115, 1203.039 424.295 C 1199.780 419.917, 1193.130 412.547, 1188.260 407.918 C 1164.736 385.552, 1136.118 373.143, 1100.860 370.023 C 1088.288 368.910, 1087.592 368.912, 1073.908 370.124 M 1480.676 370.075 C 1466.284 371.176, 1447.424 374.892, 1434.850 379.102 C 1403.444 389.620, 1379.832 409.026, 1367.445 434.500 C 1361.652 446.414, 1358.980 457.579, 1358.288 472.761 C 1357.614 487.547, 1358.974 497.251, 1363.368 509 C 1371.237 530.045, 1388.015 546.188, 1415.286 558.955 C 1428.971 565.361, 1441.249 569.594, 1471.874 578.463 C 1516.878 591.497, 1529.072 596.735, 1538.992 607.293 C 1543.631 612.229, 1545.356 617.787, 1544.773 625.922 C 1543.703 640.888, 1532.468 651.364, 1511.197 657.233 C 1504.476 659.087, 1500.710 659.365, 1481.500 659.423 C 1462.522 659.481, 1457.989 659.184, 1448.500 657.260 C 1416.924 650.859, 1392.294 639.840, 1368.234 621.352 C 1363.688 617.858, 1359.750 615, 1359.484 615 C 1359.218 615, 1359.004 633.788, 1359.009 656.750 L 1359.017 698.500 1364.892 702.285 C 1379.206 711.506, 1401.469 720.835, 1421.462 725.990 C 1442.986 731.540, 1458.700 733.342, 1486 733.391 C 1512.438 733.439, 1524.288 732.205, 1543.212 727.433 C 1591.886 715.160, 1622.689 686.951, 1631.590 646.500 C 1634.236 634.474, 1634.003 609.246, 1631.146 598.500 C 1626.439 580.792, 1615.785 564.423, 1601.890 553.551 C 1583.115 538.861, 1562.299 530.163, 1518.119 518.548 C 1461.671 503.708, 1446.772 494.860, 1446.639 476.102 C 1446.584 468.338, 1448.512 463.436, 1453.875 457.702 C 1468.448 442.123, 1500.719 438.082, 1542.837 446.563 C 1564.756 450.976, 1590.181 460.780, 1604.837 470.471 C 1607.773 472.412, 1610.591 474, 1611.099 474 C 1611.654 474, 1611.919 458.516, 1611.762 435.306 L 1611.500 396.611 1601.146 391.385 C 1569.317 375.321, 1521.853 366.925, 1480.676 370.075 M 1690 551 L 1690 725 1735.500 725 L 1781 725 1781 551 L 1781 377 1735.500 377 L 1690 377 1690 551 M 1099.500 450.040 C 1078.916 453.246, 1060.666 463.036, 1045.921 478.781 C 1028.072 497.841, 1019 522.346, 1019 551.500 C 1019 571.350, 1022.213 585.553, 1030.536 602.500 C 1051.006 644.177, 1099.350 663.626, 1144.048 648.166 C 1186.386 633.522, 1211.409 585.093, 1203.555 532.996 C 1198.255 497.834, 1178.560 470.104, 1149.542 456.947 C 1136.058 450.833, 1113.975 447.785, 1099.500 450.040 M 2714.549 522.919 C 2701.180 544.927, 2669.649 582.488, 2653.870 595.204 C 2637.930 608.049, 2615.125 620.641, 2597.500 626.330 C 2577.844 632.674, 2564.880 634.973, 2531.500 638.032 C 2490.320 641.805, 2476.765 646.120, 2463.115 659.800 C 2451.992 670.947, 2445.967 683.216, 2433.553 720 C 2422.806 751.842, 2415.424 768.220, 2406.266 780.540 C 2389.423 803.199, 2364.921 817.083, 2332.163 822.531 C 2303.823 827.244, 2282.655 820.655, 2263.004 801.004 C 2245.036 783.036, 2230.392 753.348, 2226.431 726.859 C 2225.584 721.193, 2224.752 716.419, 2224.582 716.249 C 2223.757 715.423, 2205.502 730.759, 2197.930 738.639 C 2177.961 759.420, 2166.381 784.135, 2164.052 810.943 C 2160.797 848.424, 2175.769 886.726, 2205 915.696 C 2225.792 936.301, 2250.325 949.559, 2279 955.684 C 2292.046 958.471, 2324.932 958.228, 2338.259 955.246 C 2352.910 951.968, 2364.429 947.802, 2378.931 940.535 C 2427.684 916.105, 2461.732 886.918, 2478.161 855.473 C 2491.541 829.863, 2494.475 802.661, 2488.662 758.092 C 2484.844 728.817, 2485.229 718.470, 2490.525 708 C 2493.390 702.338, 2496.208 699.705, 2502.512 696.799 C 2510.200 693.255, 2529.191 693.629, 2555.500 697.843 C 2585.012 702.569, 2599.520 703.980, 2618.716 703.990 C 2644.790 704.005, 2665.393 700.512, 2685.866 692.605 C 2714.462 681.561, 2741.837 661.849, 2764.727 635.820 C 2775.624 623.428, 2791.137 602.894, 2790.772 601.345 C 2790.623 600.709, 2775.018 582.336, 2756.095 560.514 C 2737.173 538.693, 2720.935 519.906, 2720.011 518.766 C 2718.360 516.727, 2718.268 516.797, 2714.549 522.919" stroke="none" fill="#5cc394" fill-rule="evenodd"/></svg>