<svg xmlns="http://www.w3.org/2000/svg" width="1009" height="1075" viewBox="0 0 1009 1075" version="1.1"><path d="M 598.214 72.891 C 585.360 77.331, 574.700 88.799, 569.327 103.968 L 566.577 111.731 558.039 112.348 C 538.715 113.745, 523.201 120.705, 509.904 133.942 C 503.311 140.506, 500.459 144.248, 497.666 150 C 493.742 158.081, 490.479 170, 492.189 170 C 492.746 170, 497.809 168.658, 503.440 167.017 C 556.320 151.613, 606.906 151.983, 655.839 168.130 C 659.365 169.294, 662.550 169.840, 663.018 169.361 C 664.375 167.969, 662.233 158.978, 659.002 152.500 C 657.356 149.200, 651.948 141.100, 646.984 134.500 C 630.477 112.551, 627.663 103.351, 634.051 92.213 C 635.846 89.083, 639.319 85.206, 642.562 82.713 L 648.040 78.500 644.003 76.705 C 631.111 70.972, 609.082 69.137, 598.214 72.891 M 555 219.122 C 540.078 220.838, 520.054 225.392, 520.014 227.080 C 520.006 227.399, 531.893 241.379, 546.428 258.146 C 567.026 281.906, 573.755 289.037, 576.928 290.468 C 579.168 291.478, 581 292.685, 581 293.152 C 581 293.618, 581.900 294, 583 294 C 584.100 294, 585 294.450, 585 295 C 585 295.550, 585.590 296, 586.311 296 C 587.033 296, 588.608 296.918, 589.811 298.039 C 591.015 299.160, 592 299.803, 592 299.468 C 592 299.132, 592.601 299.452, 593.335 300.179 C 594.070 300.905, 596.641 303.075, 599.050 305 C 610.956 314.517, 622.811 327.391, 630.715 339.387 C 633.293 343.299, 635.874 346.831, 636.451 347.235 C 637.028 347.639, 637.126 347.976, 636.668 347.985 C 636.211 347.993, 636.721 349.462, 637.801 351.250 C 640.684 356.020, 649.146 372.822, 649.391 374.262 C 649.507 374.943, 650.254 376.656, 651.051 378.068 C 652.986 381.497, 754.143 498, 755.185 498 C 755.633 498, 756 497.420, 756 496.711 C 756 496.003, 756.907 493.644, 758.016 491.469 C 759.125 489.294, 761.376 482.112, 763.020 475.507 C 789.609 368.654, 735.053 260.355, 638.356 228.036 C 611.875 219.186, 582.118 216.004, 555 219.122 M 847 360.966 C 847 361.331, 848.977 367.699, 851.393 375.117 C 861.073 404.836, 865.299 430.383, 865.352 459.500 C 865.419 496.800, 858.266 528.383, 841.984 562.684 C 838.803 569.385, 836.456 575.122, 836.767 575.434 C 837.078 575.745, 836.877 576, 836.319 576 C 835.760 576, 834.460 577.913, 833.429 580.250 C 832.399 582.587, 831.254 584.725, 830.887 585 C 829.901 585.737, 902.249 668.842, 903.465 668.370 C 904.508 667.965, 907.671 662.989, 907.560 661.929 C 907.527 661.614, 908.274 660.583, 909.220 659.637 C 911.786 657.071, 919.812 641.971, 925.239 629.500 C 950.733 570.914, 953.693 507.239, 933.653 448.500 C 918.539 404.200, 892.826 373.107, 863.500 363.667 C 857.557 361.754, 847 360.026, 847 360.966" stroke="none" fill="#6ec6af" fill-rule="evenodd"/><path d="M 396.588 209.563 C 379.376 215.576, 356.682 228.231, 339.849 241.203 C 300.931 271.196, 264.675 328.217, 247.464 386.500 C 238.204 417.854, 234.533 446.881, 235.322 482.500 C 236.226 523.330, 242.611 555.886, 256.701 591.500 C 284.488 661.737, 332.174 710.807, 386.560 725.130 C 394.407 727.196, 397.701 727.478, 413.500 727.437 C 429.799 727.395, 432.445 727.137, 441.500 724.705 C 473.616 716.077, 505.150 690.881, 529.599 654.314 C 557.724 612.248, 574.987 562.964, 573.816 528.077 L 573.500 518.653 564.379 529.593 C 535.910 563.742, 503.509 585.727, 472.121 592.195 C 460.195 594.652, 438.405 594.303, 428 591.488 C 418.381 588.886, 405.292 583.003, 396.905 577.511 C 387.671 571.465, 369.166 552.973, 362.309 542.939 C 347.215 520.852, 336.708 493.713, 331.363 463 C 328.221 444.948, 327.138 415.609, 328.905 396.399 C 334.729 333.081, 358.947 272.192, 401.950 212.750 C 404.238 209.588, 405.523 207.033, 404.805 207.074 C 404.087 207.115, 400.390 208.235, 396.588 209.563 M 507 229.563 C 492.974 234.191, 472.524 244.355, 461.680 252.086 C 445.480 263.636, 432.120 278.593, 424.669 293.520 C 418.518 305.842, 418.165 305.620, 433.080 298.814 C 484.452 275.373, 532.365 271.813, 570.500 288.605 C 580.462 292.991, 582.815 293.766, 577.133 290.788 C 573.875 289.081, 566.338 281.094, 547.428 259.307 C 533.491 243.251, 521.510 229.189, 520.804 228.057 C 520.097 226.926, 519.065 226.022, 518.509 226.049 C 517.954 226.076, 512.775 227.657, 507 229.563 M 483.477 358.392 C 461.937 362.505, 435.420 380.743, 426.851 397.338 L 424.869 401.176 427.185 400.338 C 428.458 399.877, 433.550 399.503, 438.500 399.506 C 446.591 399.512, 448.040 399.811, 452.848 402.469 C 466.586 410.062, 475.970 428.541, 475.970 448 C 475.970 462.727, 471.362 475.254, 462.373 484.964 C 459.381 488.196, 457.384 491.119, 457.935 491.460 C 460.034 492.757, 478.835 493.177, 486.439 492.096 C 496.279 490.697, 509.228 486.308, 516.624 481.865 C 535.526 470.509, 549.841 451.670, 555.053 431.293 C 557.481 421.799, 557.682 405.037, 555.469 396.542 C 550.856 378.832, 538.030 365.802, 519.500 360 C 510.654 357.230, 493.557 356.467, 483.477 358.392 M 650.005 377.062 C 650.002 377.372, 651.285 381.426, 652.855 386.072 C 656.749 397.591, 660.564 414.102, 662.659 428.500 C 664.774 443.038, 665.060 479.613, 663.171 494 C 655.906 549.323, 634.021 597.327, 600.141 632.250 C 597.048 635.438, 595.217 637.999, 596.031 637.999 C 598.804 637.996, 617.505 633.139, 627 629.956 C 678.495 612.689, 717.391 578.112, 743.975 525.969 C 750.284 513.594, 759.503 491.170, 758.638 490.304 C 758.363 490.030, 757.586 491.649, 756.911 493.903 C 756.236 496.156, 755.386 498, 755.024 498 C 754.206 498, 654.167 382.903, 651.755 379.188 C 650.796 377.709, 650.008 376.753, 650.005 377.062 M 160.500 436.590 C 128.338 442.262, 94.333 463.030, 79.230 486.224 C 72.621 496.376, 69.955 504.252, 69.281 515.619 C 67.915 538.685, 77.656 557.719, 109.393 594 C 124.275 611.012, 128.823 617.314, 130.047 622.619 C 131.228 627.740, 129.803 639.454, 124.893 665 C 116.823 706.981, 114.376 727.751, 115.351 746 C 116.422 766.035, 121.057 779.038, 130.162 787.554 C 140.475 797.201, 152.253 800.103, 173.343 798.193 C 207.915 795.062, 232.276 784.011, 253.618 761.776 C 260.445 754.664, 268 745.161, 268 743.686 C 268 743.437, 264.288 740.531, 259.750 737.227 C 216.763 705.934, 184.471 650.675, 171.669 586.500 C 167.266 564.429, 165.822 549.945, 165.272 522.322 C 164.719 494.540, 165.687 476.662, 169.052 452.527 C 170.123 444.842, 171 437.755, 171 436.777 C 171 434.726, 171.065 434.727, 160.500 436.590 M 826.711 590.967 C 815.713 610.550, 781.076 652.146, 764.942 665.146 C 748.927 678.050, 726.157 690.630, 708.500 696.330 C 688.844 702.674, 675.880 704.973, 642.500 708.032 C 601.320 711.805, 587.765 716.120, 574.115 729.800 C 562.992 740.947, 556.967 753.216, 544.553 790 C 533.806 821.842, 526.424 838.220, 517.266 850.540 C 500.423 873.199, 475.921 887.083, 443.163 892.531 C 414.823 897.244, 393.655 890.655, 374.004 871.004 C 356.036 853.036, 341.392 823.348, 337.431 796.859 C 336.584 791.193, 335.752 786.419, 335.582 786.249 C 334.757 785.423, 316.502 800.759, 308.930 808.639 C 288.961 829.420, 277.381 854.135, 275.052 880.943 C 271.797 918.424, 286.769 956.726, 316 985.696 C 336.792 1006.301, 361.325 1019.559, 390 1025.684 C 403.046 1028.471, 435.932 1028.228, 449.259 1025.246 C 463.910 1021.968, 475.429 1017.802, 489.931 1010.535 C 538.684 986.105, 572.732 956.918, 589.161 925.473 C 602.541 899.863, 605.475 872.661, 599.662 828.092 C 595.844 798.817, 596.229 788.470, 601.525 778 C 604.390 772.338, 607.208 769.705, 613.512 766.799 C 621.200 763.255, 640.191 763.629, 666.500 767.843 C 696.012 772.569, 710.520 773.980, 729.716 773.990 C 748.747 774.001, 763.821 772.289, 778.677 768.429 C 823.518 756.778, 862.762 727.006, 897.874 678 C 903.848 669.662, 904.878 667.750, 903.123 668.250 C 902.641 668.388, 886.143 649.938, 866.460 627.250 C 846.778 604.563, 830.410 586, 830.087 586.001 C 829.764 586.002, 828.245 588.236, 826.711 590.967" stroke="none" fill="#5dc395" fill-rule="evenodd"/></svg>